<?xml version="1.0" encoding="utf-8"?>
<svg viewBox="196.484 110.756 90.523 73.483" xmlns="http://www.w3.org/2000/svg">
  <path d="m78.874 42.07 17.614-13.93c1.726-1.365 1.726-3.57 0-4.935L77.28 8.015c-1.726-1.365-4.514-1.365-6.24 0l-17.614 13.93L35.81 8.015C34.926 7.35 33.82 7 32.67 7c-1.106 0-2.257.35-3.098 1.015l-19.207 15.19c-1.726 1.365-1.726 3.57 0 4.935l17.614 13.93L10.364 56c-1.726 1.365-1.726 3.57 0 4.935l19.207 15.19c1.726 1.365 4.514 1.365 6.24 0l17.615-13.93 17.614 13.93c.885.7 1.992 1.015 3.142 1.015 1.151 0 2.257-.35 3.143-1.015l19.207-15.19c1.726-1.365 1.726-3.57 0-4.935L78.874 42.07zM53.514 31.5c2.434 0 4.426 1.575 4.426 3.5s-1.992 3.5-4.426 3.5-4.425-1.575-4.425-3.5 1.991-3.5 4.425-3.5zM32.67 38.36 16.604 25.69l16.065-12.705 16.021 12.67L32.67 38.36zm11.994 7.14c-2.434 0-4.426-1.575-4.426-3.5s1.992-3.5 4.426-3.5 4.426 1.575 4.426 3.5-1.992 3.5-4.426 3.5zm8.851 7c-2.434 0-4.425-1.575-4.425-3.5s1.991-3.5 4.425-3.5c2.434 0 4.426 1.575 4.426 3.5s-1.992 3.5-4.426 3.5zm8.852-14c2.434 0 4.425 1.575 4.425 3.5s-1.991 3.5-4.425 3.5c-2.434 0-4.426-1.575-4.426-3.5s1.992-3.5 4.426-3.5zm11.772 32.69L58.073 58.52l16.065-12.705 16.021 12.67L74.14 71.19z" fill="#000" transform="matrix(1, 0, 0, 1, 188.298542, 105.959816)"/>
</svg>